<?xml version="1.0" encoding="UTF-8"?>
<svg id="Layer_1" data-name="Layer 1" xmlns="http://www.w3.org/2000/svg" viewBox="0 0 1759.5 359.85">
  <defs>
    <style>
      .cls-1 {
        fill: none;
        stroke: #ed320e;
        stroke-width: 19.72px;
      }
    </style>
  </defs>
  <path class="cls-1" d="M33.22,46.96c31.62-32.29,83.43-32.85,115.72-1.23l106.23,103.99c41.49,40.62,42.2,107.19,1.58,148.68l-40.94,41.82L34.45,162.68C2.15,131.06,1.6,79.26,33.22,46.96Z"/>
  <path class="cls-1" d="M391.84,43.28c32.29,31.62,32.85,83.43,1.23,115.72l-177.54,181.36-41.82-40.94c-41.49-40.62-42.2-107.19-1.58-148.68l103.99-106.23c31.62-32.29,83.42-32.85,115.72-1.23Z"/>
  <path class="cls-1" d="M33.22,46.96c31.62-32.29,83.43-32.85,115.72-1.23l106.23,103.99c41.49,40.62,42.2,107.19,1.58,148.68l-40.94,41.82L34.45,162.68C2.15,131.06,1.6,79.26,33.22,46.96Z"/>
  <path d="M517.03,143.71h-32.17V0h79.36c35.39,0,55.55,15.66,55.55,43.11,0,23.38-13.51,37.32-40.54,39.9v1.72c12.87,3.43,17.8,10.3,23.16,20.38l20.81,38.61h-37.32l-19.73-37.32c-5.79-11.15-11.15-14.8-27.88-14.8h-21.24v52.12ZM517.03,28.96v38.39h46.97c15.23,0,22.09-4.29,22.09-19.3,0-14.16-6.86-19.09-22.09-19.09h-46.97ZM665.54,143.71h-32.17V0h32.17v57.05h75.07V0h32.17v143.71h-32.17v-57.7h-75.07v57.7ZM875.19,143.71h-32.39v-47.62L779.1,0h39.68l27.46,42.04,12.01,19.3h2.36l12.01-19.3L900.07,0h39.89l-64.78,96.3v47.4ZM1026.09,143.71h-32.17V28.96h-53.41V0h138.99v28.96h-53.41v114.75ZM1123.21,143.71h-32.17V0h32.17v57.05h75.07V0h32.17v143.71h-32.17v-57.7h-75.07v57.7ZM1279.89,143.71h-32.18V0h43.54l33.68,70.78,13.51,33.67h2.36l13.08-33.67L1386.49,0h43.75v143.71h-32.17v-72.93l1.07-22.52h-2.36l-8.36,22.52-30.03,64.35h-39.04l-30.03-64.35-8.36-22.52h-2.36l1.29,22.52v72.93ZM1479.29,143.71h-32.17V0h32.17v143.71ZM1522.51,143.71h-36.03L1549.33,0h45.9l63.27,143.71h-36.89l-13.51-31.74h-71.86l-13.73,31.74ZM1562.19,51.69l-13.51,31.32h46.97l-13.51-31.32-8.79-22.31h-2.36l-8.8,22.31ZM500.09,357.71h-9.65v-143.71h9.65v66.92h98.23v-66.92h9.44v143.71h-9.44v-68.21h-98.23v68.21ZM741.32,357.71h-105.1v-143.71h105.1v8.79h-95.45v58.34h92.23v8.58h-92.23v59.2h95.45v8.79ZM762.47,357.71h-10.3l65.63-143.71h13.08l65.63,143.71h-10.29l-21.23-45.69h-81.51l-21.02,45.69ZM816.31,241.03l-28.74,62.2h73.35l-28.74-62.2-7.72-17.59h-.86l-7.29,17.59ZM922.36,357.71h-9.65v-143.71h67.35c28.31,0,48.68,15.01,48.68,40.97s-19.08,40.11-45.68,40.11v.86c8.15,2.36,13.73,8.15,18.66,15.87l28.96,45.9h-10.73l-27.67-43.11c-7.51-12.23-15.87-17.8-35.82-17.8h-34.1v60.91ZM922.36,222.79v65.63h57.7c25.09,0,38.82-10.51,38.82-32.82s-13.73-32.82-38.82-32.82h-57.7ZM1109.09,357.71h-9.44v-134.91h-61.13v-8.79h131.48v8.79h-60.91v134.91ZM1283.7,359.85c-40.54,0-70.14-29.17-70.14-74s29.6-74,70.14-74c34.53,0,62.2,20.16,62.2,51.48v2.36h-10.08v-2.36c0-26.38-19.09-42.25-52.12-42.25-37.32,0-60.27,23.38-60.27,64.78s22.95,64.56,60.27,64.56c33.03,0,52.12-15.66,52.12-42.25v-2.14h10.08v2.14c0,31.53-27.45,51.69-62.2,51.69ZM1366.35,357.71h-10.3l65.64-143.71h13.08l65.63,143.71h-10.29l-21.24-45.69h-81.5l-21.02,45.69ZM1420.18,241.03l-28.74,62.2h73.36l-28.74-62.2-7.73-17.59h-.85l-7.3,17.59ZM1526.23,357.71h-9.65v-143.71h67.35c28.31,0,48.69,15.01,48.69,40.97s-19.09,40.11-45.69,40.11v.86c8.15,2.36,13.73,8.15,18.66,15.87l28.96,45.9h-10.73l-27.66-43.11c-7.51-12.23-15.88-17.8-35.82-17.8h-34.11v60.91ZM1526.23,222.79v65.63h57.7c25.1,0,38.82-10.51,38.82-32.82s-13.72-32.82-38.82-32.82h-57.7ZM1759.5,357.71h-105.09v-143.71h105.09v8.79h-95.44v58.34h92.23v8.58h-92.23v59.2h95.44v8.79Z"/>
</svg>