<svg width="1760" height="360" viewBox="0 0 1760 360" fill="none" xmlns="http://www.w3.org/2000/svg">
<g clip-path="url(#clip0_225_35757)">
<path d="M33.22 46.961C64.84 14.6709 116.65 14.111 148.94 45.731L255.17 149.721C296.66 190.341 297.37 256.911 256.75 298.401L215.81 340.221L34.45 162.681C2.15 131.061 1.6 79.261 33.22 46.961Z" stroke="#ED320E" stroke-width="19.72"/>
<path d="M391.84 43.2798C424.13 74.8998 424.69 126.71 393.07 159L215.53 340.36L173.71 299.42C132.22 258.8 131.51 192.23 172.13 150.74L276.12 44.5098C307.74 12.2198 359.54 11.6598 391.84 43.2798Z" stroke="#ED320E" stroke-width="19.72"/>
<path d="M33.22 46.961C64.84 14.6709 116.65 14.111 148.94 45.731L255.17 149.721C296.66 190.341 297.37 256.911 256.75 298.401L215.81 340.221L34.45 162.681C2.15 131.061 1.6 79.261 33.22 46.961Z" stroke="#ED320E" stroke-width="19.72"/>
<path d="M517.03 143.71H484.86V0H564.22C599.61 0 619.77 15.66 619.77 43.11C619.77 66.49 606.26 80.43 579.23 83.01V84.73C592.1 88.16 597.03 95.03 602.39 105.11L623.2 143.72H585.88L566.15 106.4C560.36 95.25 555 91.6 538.27 91.6H517.03V143.72V143.71ZM517.03 28.96V67.35H564C579.23 67.35 586.09 63.06 586.09 48.05C586.09 33.89 579.23 28.96 564 28.96H517.03ZM665.54 143.71H633.37V0H665.54V57.05H740.61V0H772.78V143.71H740.61V86.01H665.54V143.71ZM875.19 143.71H842.8V96.09L779.1 0H818.78L846.24 42.04L858.25 61.34H860.61L872.62 42.04L900.07 0H939.96L875.18 96.3V143.7L875.19 143.71ZM1026.09 143.71H993.92V28.96H940.51V0H1079.5V28.96H1026.09V143.71ZM1123.21 143.71H1091.04V0H1123.21V57.05H1198.28V0H1230.45V143.71H1198.28V86.01H1123.21V143.71ZM1279.89 143.71H1247.71V0H1291.25L1324.93 70.78L1338.44 104.45H1340.8L1353.88 70.78L1386.49 0H1430.24V143.71H1398.07V70.78L1399.14 48.26H1396.78L1388.42 70.78L1358.39 135.13H1319.35L1289.32 70.78L1280.96 48.26H1278.6L1279.89 70.78V143.71ZM1479.29 143.71H1447.12V0H1479.29V143.71ZM1522.51 143.71H1486.48L1549.33 0H1595.23L1658.5 143.71H1621.61L1608.1 111.97H1536.24L1522.51 143.71ZM1562.19 51.69L1548.68 83.01H1595.65L1582.14 51.69L1573.35 29.38H1570.99L1562.19 51.69ZM500.09 357.71H490.44V214H500.09V280.92H598.32V214H607.76V357.71H598.32V289.5H500.09V357.71ZM741.32 357.71H636.22V214H741.32V222.79H645.87V281.13H738.1V289.71H645.87V348.91H741.32V357.7V357.71ZM762.47 357.71H752.17L817.8 214H830.88L896.51 357.71H886.22L864.99 312.02H783.48L762.46 357.71H762.47ZM816.31 241.03L787.57 303.23H860.92L832.18 241.03L824.46 223.44H823.6L816.31 241.03ZM922.36 357.71H912.71V214H980.06C1008.37 214 1028.74 229.01 1028.74 254.97C1028.74 280.93 1009.66 295.08 983.06 295.08V295.94C991.21 298.3 996.79 304.09 1001.72 311.81L1030.68 357.71H1019.95L992.28 314.6C984.77 302.37 976.41 296.8 956.46 296.8H922.36V357.71ZM922.36 222.79V288.42H980.06C1005.15 288.42 1018.88 277.91 1018.88 255.6C1018.88 233.29 1005.15 222.78 980.06 222.78H922.36V222.79ZM1109.09 357.71H1099.65V222.8H1038.52V214.01H1170V222.8H1109.09V357.71ZM1283.7 359.85C1243.16 359.85 1213.56 330.68 1213.56 285.85C1213.56 241.02 1243.16 211.85 1283.7 211.85C1318.23 211.85 1345.9 232.01 1345.9 263.33V265.69H1335.82V263.33C1335.82 236.95 1316.73 221.08 1283.7 221.08C1246.38 221.08 1223.43 244.46 1223.43 285.86C1223.43 327.26 1246.38 350.42 1283.7 350.42C1316.73 350.42 1335.82 334.76 1335.82 308.17V306.03H1345.9V308.17C1345.9 339.7 1318.45 359.86 1283.7 359.86V359.85ZM1366.35 357.71H1356.05L1421.69 214H1434.77L1500.4 357.71H1490.11L1468.87 312.02H1387.37L1366.35 357.71ZM1420.18 241.03L1391.44 303.23H1464.8L1436.06 241.03L1428.33 223.44H1427.48L1420.18 241.03ZM1526.23 357.71H1516.58V214H1583.93C1612.24 214 1632.62 229.01 1632.62 254.97C1632.62 280.93 1613.53 295.08 1586.93 295.08V295.94C1595.08 298.3 1600.66 304.09 1605.59 311.81L1634.55 357.71H1623.82L1596.16 314.6C1588.65 302.37 1580.28 296.8 1560.34 296.8H1526.23V357.71ZM1526.23 222.79V288.42H1583.93C1609.03 288.42 1622.75 277.91 1622.75 255.6C1622.75 233.29 1609.03 222.78 1583.93 222.78H1526.23V222.79ZM1759.5 357.71H1654.41V214H1759.5V222.79H1664.06V281.13H1756.29V289.71H1664.06V348.91H1759.5V357.7V357.71Z" fill="white"/>
</g>
<defs>
<clipPath id="clip0_225_35757">
<rect width="1759.5" height="359.85" fill="white"/>
</clipPath>
</defs>
</svg>
