<?xml version="1.0" standalone="no"?> <!DOCTYPE svg PUBLIC "-//W3C//DTD SVG 20010904//EN" "http://www.w3.org/TR/2001/REC-SVG-20010904/DTD/svg10.dtd"> <svg version="1.0" xmlns="http://www.w3.org/2000/svg" width="446.000000pt" height="374.000000pt" viewBox="0 0 446.000000 374.000000" preserveAspectRatio="xMidYMid meet"> <g transform="translate(0.000000,374.000000) scale(0.050000,-0.050000)" fill="#ffffff" stroke="none"> <path d="M8130 7112 c-1743 -767 -3083 -2094 -3537 -3505 -235 -730 -293 -1650 -150 -2385 l21 -108 254 498 c475 928 956 1671 1523 2346 188 225 419 465 419 437 0 -57 -328 -719 -834 -1685 -416 -791 -802 -1615 -1048 -2236 l-39 -96 96 55 c2319 1347 3333 2965 3555 5677 38 458 41 1110 5 1109 -14 0 -133 -48 -265 -107z"/> <path d="M860 5307 c3 -1454 561 -2765 1520 -3576 405 -342 1433 -1025 1476 -981 31 30 -485 963 -956 1730 -379 618 -607 1019 -589 1038 16 16 508 -491 706 -728 329 -394 636 -821 899 -1252 37 -59 61 -85 53 -58 -30 115 -33 1047 -3 1270 l30 220 -52 130 c-302 762 -1070 1490 -2129 2017 -321 160 -736 333 -900 374 l-55 13 0 -197z"/> </g> </svg>